<mxfile host="app.diagrams.net" modified="2023-02-03T09:10:36.332Z" agent="5.0 (Macintosh; Intel Mac OS X 10_15_7) AppleWebKit/537.36 (KHTML, like Gecko) Chrome/109.0.0.0 Safari/537.36" etag="fF2d-nm1OQH6lLUM8T3d" version="20.8.15" type="github">
  <diagram name="第 1 页" id="Phw7H4I3qBGtf_W1P5GW">
    <mxGraphModel dx="954" dy="592" grid="1" gridSize="10" guides="1" tooltips="1" connect="1" arrows="1" fold="1" page="1" pageScale="1" pageWidth="827" pageHeight="1169" math="0" shadow="0">
      <root>
        <mxCell id="0" />
        <mxCell id="1" parent="0" />
        <mxCell id="0fw99B7jcKSTTh3-El5q-1" value="参考 钉钉搜索聊天内容滑动到指定位置,并进行上拉加载和下拉刷新操作" style="rounded=1;whiteSpace=wrap;html=1;" vertex="1" parent="1">
          <mxGeometry x="90" y="40" width="630" height="70" as="geometry" />
        </mxCell>
      </root>
    </mxGraphModel>
  </diagram>
</mxfile>
